<?xml version="1.0" encoding="UTF-8"?><svg id="Layer_1" xmlns="http://www.w3.org/2000/svg" viewBox="0 0 553.3 433.48"><path d="M199.46,248.67s39.26-5.89,35.99-49.73-30.43-65.43,1.96-125.31S303.83.67,303.83.67c0,0,18.65-7.85-5.89,30.1-24.54,37.95-34.68,43.19-39.91,81.79,0,0,0,29.77,16.69,35.99,0,0,6.22-11.12-.33-38.61-6.54-27.48,22.25-49.4,25.52-43.51,0,0-7.2,26.5-3.27,33.37s15.7,55.95,5.23,83.76c-10.47,27.81-12.11,60.85-102.4,65.11Z" fill="#50bdbd"/><path d="M426.77,248.67s-39.26-5.89-35.99-49.73,30.43-65.43-1.96-125.31S322.4.67,322.4.67c0,0-18.65-7.85,5.89,30.1s34.68,43.19,39.91,81.79c0,0,0,29.77-16.69,35.99,0,0-6.22-11.12.33-38.61,6.54-27.48-22.25-49.4-25.52-43.51,0,0,7.2,26.5,3.27,33.37s-15.7,55.95-5.23,83.76,12.11,60.85,102.4,65.11Z" fill="#50bdbd"/><path d="M163.59,230.93v158.21h-17.05l-105.77-130.8v130.8h-18.29v-157.09l17.05-3.12,105.77,131.69v-129.68h18.29Z" fill="#50bdbd"/><path d="M327.43,377.11l-.49,12.7c-3.21.45-7.66,1.11-13.34,1.11-13.34,0-20.76-4.46-20.76-20.5-9.64,13.59-25.45,21.39-45.96,21.39-26.19,0-39.29-10.47-39.29-43v-52.36c-3.71-1.11-9.64-1.56-14.58-1.56l.49-12.7c2.47-.45,7.41-1.34,13.34-1.34,13.34,0,18.53,4.01,18.53,16.71v48.8c0,22.95,7.91,30.97,27.43,30.97,25.95,0,40.03-18.49,40.03-36.32v-58.83h17.79v93.59c3.95.89,10.13,1.34,16.8,1.34Z" fill="#50bdbd"/><path d="M410.22,281.52l-.99,15.82c-1.73-.45-4.94-.89-9.39-.89-18.04,0-29.65,18.94-29.65,36.32v56.37h-17.79v-92.7c-3.46-1.11-7.91-1.56-15.07-1.56l.5-12.7c1.73-.45,6.18-1.78,12.6-1.78,9.88,0,18.78,7.35,19.77,21.61,6.67-13.15,17.05-22.06,29.41-22.06,5.19,0,8.4.89,10.63,1.56Z" fill="#50bdbd"/><path d="M545.64,377.11l-.49,12.7c-3.21.45-7.17,1.11-13.59,1.11-13.84,0-19.27-5.79-20.26-16.71-7.41,10.03-20.26,17.6-40.77,17.6-31.14,0-51.15-18.49-51.15-54.81s22.49-57.04,56.84-57.04c17.54,0,28.91,5.35,36.57,10.47l1.48-8.24h14.58v93.59c3.95.89,9.39,1.34,16.8,1.34ZM511.04,347.47v-42.56c-6.18-5.35-16.8-10.92-33.11-10.92-25.21,0-40.53,16.49-40.53,43,0,28.08,14.33,40.78,36.82,40.78s36.82-12.7,36.82-30.3Z" fill="#50bdbd"/></svg>